<?xml version="1.0" encoding="utf-8"?>
<!-- Generator: Adobe Illustrator 18.0.0, SVG Export Plug-In . SVG Version: 6.00 Build 0)  -->
<!DOCTYPE svg PUBLIC "-//W3C//DTD SVG 1.1//EN" "http://www.w3.org/Graphics/SVG/1.1/DTD/svg11.dtd">
<svg  fill="#FFFFFF" version="1.1" id="Layer_1" xmlns="http://www.w3.org/2000/svg" xmlns:xlink="http://www.w3.org/1999/xlink" x="0px" y="0px"
	 viewBox="0 0 500 500" enable-background="new 0 0 500 500" xml:space="preserve">
<g>
	<g>
		<defs>
			
				<rect id="SVGID_1_" x="96.1" y="58.6" transform="matrix(5.407194e-02 0.9985 -0.9985 5.407194e-02 483.9919 -38.434)" width="332.4" height="355.2"/>
		</defs>
		<clipPath id="SVGID_2_">
			<use xlink:href="#SVGID_1_"  overflow="visible"/>
		</clipPath>
		<path clip-path="url(#SVGID_2_)" fill="none" stroke="#000000" stroke-width="40" stroke-miterlimit="10" d="M115.3,289.1"/>
	</g>
	<path d="M328.9,106.8c0.4,6.8,2.7,13.2,6.6,18.6l-10.6,12l39.5,34.9l10.2-11.5c6.2,3.8,13.4,5.6,20.8,5.2
		c19.9-1.3,35.2-18.5,33.9-38.4c-1-16.8-16.2-28.7-32.1-31.7c-4.7-15.8-17.3-28.5-34.4-27.4C342.9,69.6,327.6,86.9,328.9,106.8
		L328.9,106.8z M382.5,103.5l-2,10.8l11.8-2.1c9.5-0.4,17.7,6.9,18.3,16.4c0.6,9.7-6.8,18-16.4,18.6c-5.2,0.3-10.2-1.8-13.9-5.7
		l-7-7.6l-10.5,11.9l-11.5-10.1l10.2-11.5L354,118c-3.8-3.1-6.1-7.5-6.4-12.4c-0.6-9.6,6.8-18,16.4-18.6
		C373.6,86.5,381.9,93.8,382.5,103.5L382.5,103.5z M382.5,103.5"/>
	<path fill="none" stroke="#000000" stroke-width="20" stroke-miterlimit="10" d="M330,288.5c0.2-0.7,0.4-1.4,0.6-2.3
		c7.9-44.7,13.3-67,16.8-78c2.1-6.6,1.5-14.7-3.4-19.5l-31.7-31.3c-4.9-4.8-12.4-4.4-17.8-0.1c-18.4,14.3-44.8,18.7-60.2,19.9
		c-1.1,0.1-2,0.3-2.8,0.5c-30.9-1.3-64,9-92.2,31.2c-56.2,44.3-71,119.1-33.2,167.1c37.8,48.1,114.1,51.1,170.2,6.9
		C308.3,357.8,326.9,322.9,330,288.5L330,288.5z"/>
</g>
</svg>
