<?xml version="1.0" encoding="utf-8"?>
<!-- Generator: Adobe Illustrator 18.0.0, SVG Export Plug-In . SVG Version: 6.00 Build 0)  -->
<!DOCTYPE svg PUBLIC "-//W3C//DTD SVG 1.1//EN" "http://www.w3.org/Graphics/SVG/1.1/DTD/svg11.dtd">
<svg  fill="#9682A3" version="1.1" id="Layer_1" xmlns="http://www.w3.org/2000/svg" xmlns:xlink="http://www.w3.org/1999/xlink" x="0px" y="0px"
	 viewBox="0 0 500 500" enable-background="new 0 0 500 500" xml:space="preserve">
<g>
	<path d="M337.6,170.5c0,10-7.3,16.1-12.6,20.6c-2,1.7-5.8,4.8-5.8,5.9c0,4.5-3.6,8.1-8.1,8.1H311c-4.5,0-8.2-3.5-8.2-8
		c-0.1-8.9,6.4-14.2,11.6-18.6c4.1-3.4,6.8-5.8,6.8-8c0-4.5-3.6-8.1-8.1-8.1c-4.5,0-8.1,3.6-8.1,8.1c0,4.5-3.7,8.2-8.2,8.2
		c-4.5,0-8.2-3.7-8.2-8.2c0-13.5,11-24.5,24.5-24.5S337.6,157,337.6,170.5L337.6,170.5z M311.3,212.7c-4.5,0-8,3.7-8,8.2v0.1
		c0,4.5,3.5,8.2,8,8.2c4.5,0,8.2-3.7,8.2-8.2C319.5,216.3,315.8,212.7,311.3,212.7L311.3,212.7z M146.1,269.7
		c-4.5,0-8.2,3.7-8.2,8.2c0,4.5,3.7,8.2,8.2,8.2h0.7c4.5,0,8.2-3.7,8.2-8.2c0-4.5-3.7-8.2-8.2-8.2H146.1z M174.6,269.7
		c-4.5,0-8.2,3.7-8.2,8.2c0,4.5,3.7,8.2,8.2,8.2h0.7c4.5,0,8.2-3.7,8.2-8.2c0-4.5-3.7-8.2-8.2-8.2H174.6z M415.2,138.9v92.2
		c0,21.8-17.5,39.5-39.3,39.5H269.6c-2.1,0-3.8,0-5.2,0c-1.5,0-3.2,0-3.8,0c-0.7,0.5-2.4,2-4,3.5c-0.6,0.6-1.4,1.2-2.2,2l-30.1,27.4
		c-2.4,2.2-5.9,2.8-8.9,1.4c-3-1.3-5.1-4.2-5.1-7.5v-86.8h-85.8c-12.8,0-23.4,10.5-23.4,23.3v92.2c0,12.8,10.6,22.9,23.4,22.9h118.7
		c2,0,4,0.9,5.5,2.3l24.5,22.6v-77.9c0-4.5,3.7-8.2,8.2-8.2c4.5,0,8.2,3.7,8.2,8.2v96.4c0,3.2-1.9,6.1-4.8,7.4
		c-1.1,0.5-2.1,0.7-3.2,0.7c-2,0-4-0.8-5.5-2.2l-35.9-33H124.6c-21.8,0-39.8-17.4-39.8-39.2v-92.2c0-21.8,18-39.7,39.8-39.7h85.8
		v-55.3c0-21.8,18.1-39.4,39.9-39.4h125.5C397.7,99.5,415.2,117.1,415.2,138.9L415.2,138.9z M398.8,138.9c0-12.8-10.2-23-23-23
		H250.3c-12.8,0-23.5,10.2-23.5,23v140l16.5-14.9c0.8-0.7,1.6-1.3,2.2-1.9c7.5-6.9,9.4-8,19.3-7.8c1.3,0,2.9,0,4.9,0h106.2
		c12.8,0,23-10.4,23-23.2V138.9z M398.8,138.9"/>
</g>
</svg>
