<?xml version="1.0" encoding="utf-8"?>
<!-- Generator: Adobe Illustrator 18.0.0, SVG Export Plug-In . SVG Version: 6.00 Build 0)  -->
<!DOCTYPE svg PUBLIC "-//W3C//DTD SVG 1.1//EN" "http://www.w3.org/Graphics/SVG/1.1/DTD/svg11.dtd">
<svg  fill="#5B3D6D" version="1.1" id="Layer_1" xmlns="http://www.w3.org/2000/svg" xmlns:xlink="http://www.w3.org/1999/xlink" x="0px" y="0px"
	 viewBox="0 0 500 500" enable-background="new 0 0 500 500" xml:space="preserve">
<g>
	<g>
		<defs>
			<rect id="SVGID_1_" x="1" y="42.6" width="500" height="414.8"/>
		</defs>
		<clipPath id="SVGID_2_">
			<use xlink:href="#SVGID_1_"  overflow="visible"/>
		</clipPath>
		<path clip-path="url(#SVGID_2_)" d="M359.8,203.9c1.6,2.4,4.2,3.8,6.9,3.8c1.5,0,3.1-0.4,4.5-1.3c3.8-2.5,4.9-7.6,2.4-11.4
			c-0.3-0.4-25.6-40.6-4.1-68c11.9-15.2,14-34.3,6-55.2c-5.7-15-14.6-25.7-15-26.2c-2.9-3.5-8.1-4-11.6-1c-3.5,2.9-4,8.1-1,11.6
			c0.4,0.5,28.6,35.2,8.6,60.6C327.8,153.5,358.5,201.9,359.8,203.9L359.8,203.9z M359.8,203.9"/>
		<path clip-path="url(#SVGID_2_)" d="M415.1,203.9c1.6,2.4,4.2,3.8,6.9,3.8c1.5,0,3.1-0.4,4.5-1.3c3.8-2.5,4.9-7.6,2.4-11.4
			c-0.3-0.4-25.6-40.6-4.1-68c11.9-15.2,14-34.3,6-55.2c-5.7-15-14.6-25.7-15-26.2c-2.9-3.5-8.1-4-11.6-1c-3.5,2.9-4,8.1-1,11.6
			c0.3,0.3,28.7,35.1,8.6,60.6C383.1,153.5,413.8,201.9,415.1,203.9L415.1,203.9z M415.1,203.9"/>
	</g>
	<path d="M69.3,207.7c1.6,2.4,4.2,3.8,6.9,3.8c1.5,0,3.1-0.4,4.5-1.3c3.8-2.5,4.9-7.6,2.4-11.4c-0.3-0.4-25.6-40.6-4.1-68
		c11.9-15.2,14-34.3,6-55.2c-5.7-15-14.6-25.7-15-26.2c-2.9-3.5-8.1-4-11.6-1c-3.5,2.9-3.9,8.1-1,11.6c0.3,0.3,28.7,35.1,8.6,60.7
		C37.3,157.3,68,205.7,69.3,207.7L69.3,207.7z M69.3,207.7"/>
	<path d="M124.6,207.7c1.6,2.4,4.2,3.8,6.9,3.8c1.5,0,3.1-0.4,4.5-1.3c3.8-2.5,4.9-7.6,2.4-11.4c-0.3-0.4-25.6-40.6-4.1-68
		c11.9-15.2,14-34.3,6-55.2c-5.7-15-14.6-25.7-15-26.2c-2.9-3.5-8.1-4-11.6-1c-3.5,2.9-4,8.1-1,11.6c0.3,0.3,28.7,35.1,8.6,60.7
		C92.5,157.3,123.2,205.7,124.6,207.7L124.6,207.7z M124.6,207.7"/>
	<path d="M471.7,389.5h-17.5c-4.1-102.7-84.6-186.2-186-195v-8.4c10.3-6.2,16.7-17.2,16.7-29.5c0-19-15.5-34.5-34.5-34.5h-0.8
		c-19,0-34.5,15.5-34.5,34.5c0,12.3,6.4,23.3,16.7,29.5v8.4c-101.5,8.8-181.9,92.2-186,195H28.3C13.3,389.5,1,401.8,1,416.8v10.3
		c0,15.1,12.3,27.4,27.3,27.4h443.4c15.1,0,27.3-12.3,27.3-27.4v-10.3C499,401.8,486.8,389.5,471.7,389.5L471.7,389.5z M231.6,156.6
		c0-9.9,8.1-18,18-18h0.8c9.9,0,18,8.1,18,18c0,7.4-4.5,14-11.5,16.7c-3.1,1.2-5.2,4.3-5.2,7.7v12.7h-3.4V181c0-3.4-2.1-6.4-5.2-7.7
		C236.1,170.6,231.6,164.1,231.6,156.6L231.6,156.6z M482.5,427.1c0,6-4.9,10.9-10.9,10.9H28.3c-6,0-10.9-4.9-10.9-10.9v-10.3
		c0-6,4.9-10.9,10.9-10.9h13.5c0.1,0,0.1,0,0.2,0h295.8c4.6,0,8.2-3.7,8.2-8.2c0-4.6-3.7-8.2-8.2-8.2H62.3
		c4.3-99.4,86.3-178.9,186.6-179.3h2.3c100.3,0.4,182.3,79.9,186.6,179.3h-46.6c-4.6,0-8.2,3.7-8.2,8.2c0,4.6,3.7,8.2,8.2,8.2
		l63.6,0h17c6,0,10.9,4.9,10.9,10.9V427.1z M482.5,427.1"/>
</g>
</svg>
