<?xml version="1.0" encoding="utf-8"?>
<!-- Generator: Adobe Illustrator 18.0.0, SVG Export Plug-In . SVG Version: 6.00 Build 0)  -->
<!DOCTYPE svg PUBLIC "-//W3C//DTD SVG 1.1//EN" "http://www.w3.org/Graphics/SVG/1.1/DTD/svg11.dtd">
<svg  fill="#5B3D6D" version="1.1" id="Layer_1" xmlns="http://www.w3.org/2000/svg" xmlns:xlink="http://www.w3.org/1999/xlink" x="0px" y="0px"
	 viewBox="0 0 500 500" enable-background="new 0 0 500 500" xml:space="preserve">
<g>
	<path d="M273.2,140.3c-9.5-26.3-33.3-45.5-61-50.1c-0.5-0.2-1-0.3-1.5-0.3c-0.3,0-0.7,0-1.1,0c-3.4-0.5-6.9-0.8-10.4-0.8
		c-33.1,0-63,20.9-74,51.2c-14,0.2-25.4,11.6-25.4,25.7c0,14.1,11.4,25.6,25.4,25.7c11,30.4,40.9,51.2,74,51.2
		c12.9,0,25.3-3.2,36.3-8.9c-2.5-2.2-5-4.6-7.1-7.2c-9,4.1-18.9,6.5-29.1,6.5c-30.3,0-57.4-19.8-66-48.1l-1.2-4l-4.1,0.6
		c-0.9,0.1-1.7,0.2-2.4,0.2c-8.9,0-16.1-7.2-16.1-16.1c0-8.9,7.2-16.1,16.1-16.1c0.7,0,1.5,0.1,2.4,0.2l4.1,0.6l1.2-4
		c5.8-19.2,20.2-34.4,38.3-42.3c-4,8.9,1.4,19.9,10.6,24.2c11.4,5.4,29.8,6,37.6-5.6c3.5-5.3,0.4-11.9-3.8-15.5
		c-5.9-5-14.5-5.7-21.6-2.9c-5.7,2.3-3.2,11.6,2.6,9.3c4.2-1.7,8-1.8,12,0.4c5.5,3,0.4,6.5-3.4,7.6c-7.2,2.1-17.8,0.4-23.4-4.7
		c-7.1-6.4,2-13.6,7.7-15.6c6.1-2.1,12.9-2.6,19.3-2.4c26.2,3.7,48.6,22.1,56.3,47.4l1.2,4l4.1-0.6c0.9-0.1,1.7-0.2,2.4-0.2
		c8.9,0,16.1,7.2,16.1,16.1c0,8.9-7.2,16.1-16.1,16.1c-0.7,0-1.5-0.1-2.4-0.2l-4.1-0.6l-1.2,4c-0.4,1.4-1,2.8-1.5,4.1
		c1.5-0.3,3-0.5,4.5-0.5c3.4,0,6.6,0.9,9.5,2.4c11.9-2.3,20.9-12.7,20.9-25.2C298.6,151.9,287.3,140.4,273.2,140.3L273.2,140.3z
		 M273.2,140.3"/>
	<path d="M178.9,162.6c-8.3,0-8.3,12.8,0,12.8C187.1,175.5,187.1,162.6,178.9,162.6L178.9,162.6z M178.9,162.6"/>
	<path d="M219.5,161.8c-8.3,0-8.3,12.8,0,12.8C227.8,174.7,227.8,161.8,219.5,161.8L219.5,161.8z M219.5,161.8"/>
	<g>
		<defs>
			<rect id="SVGID_1_" x="99.7" y="89" width="200" height="157.2"/>
		</defs>
		<clipPath id="SVGID_2_">
			<use xlink:href="#SVGID_1_"  overflow="visible"/>
		</clipPath>
		<path clip-path="url(#SVGID_2_)" d="M199.2,207.7c10.4,0,18.9-8.5,18.9-18.9c0-2.7-2.2-4.8-4.8-4.8c-2.7,0-4.8,2.2-4.8,4.8
			c0,5.1-4.2,9.3-9.3,9.3c-5.1,0-9.3-4.2-9.3-9.3c0-2.7-2.2-4.8-4.8-4.8s-4.8,2.2-4.8,4.8C180.3,199.2,188.8,207.7,199.2,207.7
			L199.2,207.7z M199.2,207.7"/>
		<path clip-path="url(#SVGID_2_)" d="M254.5,197.6c-19.4-11.1-46,20.1,0,43.7C301,217.4,273.3,186.8,254.5,197.6L254.5,197.6z
			 M254.5,230.3c-23-13.6-16.5-25.4-8.5-25.4c3.8,0,5.6,2.6,8.5,5.2c2.8-2.7,4.7-5.2,8.5-5.2C270.1,205,278.4,216.1,254.5,230.3
			L254.5,230.3z M254.5,230.3"/>
	</g>
</g>
<polyline fill="none" stroke="#000000" stroke-width="12" stroke-linecap="round" stroke-linejoin="round" stroke-miterlimit="10" points="
	57.8,109.7 57.8,422.4 413.3,422.4 "/>
<polyline fill="none" stroke="#000000" stroke-width="12" stroke-linecap="round" stroke-linejoin="round" stroke-miterlimit="10" points="
	57.8,422.4 158.6,312.4 222.4,348 413.3,129 "/>
</svg>
