<?xml version="1.0" encoding="utf-8"?>
<!-- Generator: Adobe Illustrator 18.0.0, SVG Export Plug-In . SVG Version: 6.00 Build 0)  -->
<!DOCTYPE svg PUBLIC "-//W3C//DTD SVG 1.1//EN" "http://www.w3.org/Graphics/SVG/1.1/DTD/svg11.dtd">
<svg  fill="#5B3D6D" version="1.1" id="Layer_1" xmlns="http://www.w3.org/2000/svg" xmlns:xlink="http://www.w3.org/1999/xlink" x="0px" y="0px"
	 viewBox="0 0 500 500" enable-background="new 0 0 500 500" xml:space="preserve">
<g>
	<path d="M235.3,247.8l-3-10.7c-1.1-4.1-5.4-6.5-9.4-5.3c-4.1,1.1-6.5,5.4-5.3,9.4l3,10.7c1.1,4.1,5.4,6.5,9.4,5.3
		C234.1,256.1,236.5,251.8,235.3,247.8L235.3,247.8z M235.3,247.8"/>
	<path d="M258.3,302.4c-4.1,1.1-6.5,5.4-5.3,9.4l3,10.6c1.1,4.1,5.4,6.5,9.4,5.3c4.1-1.1,6.5-5.4,5.3-9.4l-3-10.6
		C266.7,303.7,262.4,301.3,258.3,302.4L258.3,302.4z M258.3,302.4"/>
	<path d="M178.8,292.2c-4.1,1.1-6.5,5.4-5.3,9.4l3,10.7c1.1,4.1,5.4,6.5,9.4,5.3c4.1-1.1,6.5-5.4,5.3-9.4l-3-10.7
		C187.1,293.4,182.9,291.1,178.8,292.2L178.8,292.2z M178.8,292.2"/>
	<path d="M212.7,353.8c-4.1,1.1-6.5,5.4-5.3,9.4l3,10.7c1.1,4.1,5.4,6.5,9.4,5.3c4.1-1.1,6.5-5.4,5.3-9.4l-3-10.7
		C221,355.1,216.8,352.7,212.7,353.8L212.7,353.8z M212.7,353.8"/>
	<path d="M326.4,310.7c-4.1,1.1-6.5,5.4-5.3,9.4l3,10.7c1.1,4.1,5.4,6.5,9.4,5.3c4.1-1.1,6.5-5.4,5.3-9.4l-3-10.7
		C334.7,312,330.5,309.6,326.4,310.7L326.4,310.7z M326.4,310.7"/>
	<path d="M275.6,383c-4.1,1.1-6.5,5.4-5.3,9.4l3,10.7c1.1,4.1,5.4,6.5,9.4,5.3c4.1-1.1,6.5-5.4,5.3-9.4l-3-10.7
		C283.9,384.2,279.7,381.8,275.6,383L275.6,383z M275.6,383"/>
	<path d="M312.3,265.7l-3-10.6c-1.1-4.1-5.4-6.5-9.4-5.3c-4.1,1.1-6.5,5.4-5.3,9.4l3,10.6c1.1,4.1,5.4,6.5,9.4,5.3
		C311.1,274,313.5,269.8,312.3,265.7L312.3,265.7z M312.3,265.7"/>
	<path d="M330.2,190.5c-4.1,1.1-6.5,5.4-5.3,9.4l3,10.6c1.1,4.1,5.4,6.5,9.4,5.3c4.1-1.1,6.5-5.4,5.3-9.4l-3-10.6
		C338.5,191.7,334.3,189.3,330.2,190.5L330.2,190.5z M330.2,190.5"/>
	<g>
		<defs>
			
				<rect id="SVGID_1_" x="78.1" y="34.3" transform="matrix(-0.9634 0.268 -0.268 -0.9634 529.2609 427.7675)" width="314.7" height="431.4"/>
		</defs>
		<clipPath id="SVGID_2_">
			<use xlink:href="#SVGID_1_"  overflow="visible"/>
		</clipPath>
		<path clip-path="url(#SVGID_2_)" d="M114.6,250.4c-4.1,1.1-6.5,5.4-5.3,9.4l3,10.6c1.1,4.1,5.4,6.5,9.4,5.3
			c4.1-1.1,6.5-5.4,5.3-9.4l-3-10.6C122.9,251.7,118.7,249.3,114.6,250.4L114.6,250.4z M114.6,250.4"/>
		<path clip-path="url(#SVGID_2_)" d="M357.7,144.2c-18.5-20.4-38.1-21.7-54.8-19.2c5.6-5.2,9.9-11.4,10.1-18
			c0.2-9-12.7-10.3-19.5-11.1c-6.9-0.8-16.3-1.3-28-1.4c-19.7-0.2-39.5,0.7-39.7,0.7c-2.9,0.1-5.5,1.9-6.7,4.6
			c-3.1,7.2-7.9,16.8-11.3,23.1c-0.9-4-3-9.5-4.2-13.7c-5.8-21.5-9.6-42.5-4.1-53.2c1.8-3.6,4.4-5.6,8.4-6.5c4.1-0.9,6.8-5,5.9-9.1
			c-0.9-4.1-5-6.8-9.1-5.9c-8.4,1.8-14.9,6.8-18.9,14.5c-7.9,15.5-4.2,41,1.9,63.7l0.1,0.3c0,0.2,0.1,0.3,0.1,0.5
			c1.1,4,2.5,8.8,3.7,12.5c-6.2-3.7-13.5-8.5-19.9-13.1c-2.4-1.7-5.5-1.9-8.1-0.5c-0.2,0.1-17.6,9.5-34.4,19.9
			c-10,6.1-17.8,11.4-23.3,15.6c-5.5,4.3-15.7,11.9-11,19.6c3.2,5.2,11.4,7.9,20.3,9.2c-16.6,6.3-34.6,17.1-40.3,46
			c-6,30.5,5.6,83.8,56.3,141.6c37.1,42.3,67.8,70,103.3,85.8c0.1,0,0.1,0,0.2,0.1c23,9.6,41.2,12,57.2,7.6c0.2-0.1,0.4-0.1,0.7-0.2
			c0.2-0.1,0.5-0.1,0.7-0.2c16-4.5,30.4-16,45.1-36c0,0,0.1-0.1,0.1-0.1c22.2-31.9,34.3-71.4,44.2-126.9
			C396.2,218.8,378.7,167.2,357.7,144.2L357.7,144.2z M166.7,128.3c17.1,12,26.6,16.7,32.1,18.4c0.6,1.5,5.1,12.3,5.6,13.4
			c1.6,3.5,5.4,5.3,9,4.3c0.4-0.1,0.7-0.2,1.1-0.4c3.9-1.7,5.6-6.3,3.9-10.1c-1-2.3-4.4-10.3-4.7-11.9c3.9-4.3,9-12.5,17.4-31.6
			c23.5-0.9,49.4-0.8,62,0.8c-7.9,6-23.6,15.1-37.5,22c-2.2,1.1-3.7,3.1-4.1,5.5c-0.4,2.4,0.3,4.9,2,6.6
			c18.7,19.6,39.1,43.2,47.5,55.6c-12.6-3.4-35-12.3-48.5-17.6c-29.8-11.7-34.1-13.1-38.4-11.9l-1.2,0.3c-4.3,1.2-7.3,4.6-26.7,30
			c-8.8,11.5-23.5,30.7-32.5,40.1c0.7-15,6-45.8,12-72.2c0.5-2.4-0.1-4.9-1.7-6.7c-1.6-1.8-4-2.8-6.4-2.6
			c-15.5,1.3-33.6,1.6-43.5,0.5C124.1,153.1,146.2,139.6,166.7,128.3L166.7,128.3z M367.6,291.8c-9.5,53-21,89.8-41.9,119.7
			c-12.6,17.1-24,27.7-36.5,31.2c0,0-0.1,0-0.1,0c-0.2,0.1-0.4,0.1-0.6,0.2c-0.2,0.1-0.4,0.1-0.6,0.2c0,0-0.1,0-0.2,0
			c-12.5,3.4-27.8,0.2-47.3-7.9c-33.3-14.9-62.2-40.4-97.7-80.9c-47.1-53.7-57.9-102.9-52.8-128.6c5.3-26.8,23.5-32.6,41.2-38.2
			l0.7-0.2c1.2-0.4,5.4-1.7,11.5-3.5c1.2-0.4,2.2-1,3.1-1.8c-0.7,7.6-2.3,17.4-3.9,26.3c-2.1,12.5-3.4,22.6-3.9,30.3
			c-0.8,11.5,0,19.3,5.8,22.6c1.6,0.9,4.1,1.7,7.5,0.8l0,0c8.6-2.4,21.4-18.1,46.4-50.8c6.8-8.9,15-19.6,18.8-23.8
			c0.4-0.4,0.8-0.5,1.2-0.3c5.4,1.6,18,6.6,28.4,10.7c38.3,15.1,57.3,22,66,19.6c3.4-0.9,5.1-3,6-4.5c3.3-5.9-0.1-12.9-6.7-22.4
			c-4.4-6.3-10.7-14.3-19-23.9c-5.9-6.9-11.6-14.1-15.8-20.1c0.5,0,1.1-0.1,1.6-0.2c6.2-1.6,10.4-2.6,11.7-2.9l0.8-0.2
			c18-4.3,36.7-8.7,55,11.4C364,173.9,380.1,221.5,367.6,291.8L367.6,291.8z M367.6,291.8"/>
	</g>
</g>
</svg>
