<?xml version="1.0" encoding="utf-8"?>
<!-- Generator: Adobe Illustrator 18.0.0, SVG Export Plug-In . SVG Version: 6.00 Build 0)  -->
<!DOCTYPE svg PUBLIC "-//W3C//DTD SVG 1.1//EN" "http://www.w3.org/Graphics/SVG/1.1/DTD/svg11.dtd">
<svg  fill="#9682A3" version="1.1" id="Layer_1" xmlns="http://www.w3.org/2000/svg" xmlns:xlink="http://www.w3.org/1999/xlink" x="0px" y="0px"
	 viewBox="0 0 500 500" enable-background="new 0 0 500 500" xml:space="preserve">
<g>
	<g>
		<defs>
			<rect id="SVGID_1_" x="1.9" y="137.6" width="500" height="214.3"/>
		</defs>
		<clipPath id="SVGID_2_">
			<use xlink:href="#SVGID_1_"  overflow="visible"/>
		</clipPath>
		<path clip-path="url(#SVGID_2_)" d="M500.6,265.3c-0.5-2.2-2.4-7.2-10.9-7.2h-18.8c-4.3,0-7.7,3.4-7.7,7.7s3.5,7.7,7.7,7.7h0.2
			c-17.1,9.4-45.3,23-71.1,34.6h-32.2c-4.3,0-7.7,3.4-7.7,7.7c0,4.3,3.5,7.7,7.7,7.7h17.6l-8.6,11.3H124.7l-7.9-11.3h203.3
			c4.3,0,7.7-3.4,7.7-7.7c0-4.3-3.4-7.7-7.7-7.7h-218c-25.7-11.6-53.8-25.2-70.7-34.6h401.2c3.4,0,6.3-2.2,7.3-5.3
			c0.6-1.2,0.9-2.6,0.8-4c-0.1-1.7-3.5-41.5-30.4-60.4c-8.6-6-18.4-9.1-29.5-9.4c-2-5.8-7.6-19.2-19.5-31.5
			c-14.2-14.8-40.3-30.9-84-23.5c-21.2,3.6-36.3,14.1-47.1,27.6c-4.1-3.4-12-8.9-23.3-12.4c-15.3-4.7-40.4-6.7-72.9,10.9
			c-66.9,36.2-75.8,89-76.1,91.3c-0.1,0.4-0.1,0.8-0.1,1.3H13c-8.4,0-10.4,5.1-10.9,7.2c-1.5,6.8,4.4,11.6,17.2,19
			c7.6,4.5,18.3,10.1,31.8,16.7c22.8,11.2,46,21.7,46.3,21.8c0.1,0,0.2,0.1,0.3,0.1l16.6,24c1.4,2.1,3.8,3.3,6.3,3.3h260
			c2.4,0,4.7-1.1,6.1-3l18.9-24.8c4.5-2,25.3-11.4,45.6-21.4c13.5-6.6,24.3-12.3,32-16.7C496.2,276.8,502.1,272.1,500.6,265.3
			L500.6,265.3z M119.8,230.2c5.1,2.9,12.1,7.4,16.1,11.7c1.7,1.9,3,4.4,3.8,7.5c0.9,3.5,4,5.8,7.5,5.8c0.6,0,1.2-0.1,1.9-0.2
			c4.1-1,6.6-5.2,5.6-9.4c-1.4-5.6-3.9-10.4-7.5-14.2c-4.5-4.8-10.9-9.3-16.2-12.5c2.9-2.5,6.1-4.9,9.4-7.2
			c6.4,3.3,17,9.6,21.8,15.9c2,2.6,4.7,8,6,19c0.5,3.9,3.8,6.8,7.7,6.8c0.3,0,0.6,0,0.9-0.1c4.2-0.5,7.2-4.4,6.7-8.6
			c-1.4-11.6-4.5-20.6-9.2-26.6c-4.8-6.1-12.2-11.5-18.7-15.5c4-1.9,7.8-3.4,11.4-4.5c14.2,22.2,30,27,39.5,27.5
			c-2.2,13.4-2.7,25.2-2.7,32.5h-99.3C107.6,247.9,112.7,238.6,119.8,230.2L119.8,230.2z M209.8,210.2c-3.4,0.3-14.3-0.2-25.8-14.9
			c16.3-0.1,25.3,7.6,26,8.2c0.4,0.4,0.9,0.7,1.4,1C210.8,206.4,210.3,208.3,209.8,210.2L209.8,210.2z M328.1,213.4
			c-6-5.6-18.9-16.4-34.3-20.8c-8.9-2.6-20.6-1.8-30.5,0.5c3.4-3.2,7.5-5.8,12.4-7.6c34.7-13.2,54.6,10.9,61.4,21.5
			C334.1,208.9,331,211,328.1,213.4L328.1,213.4z M250.8,213.3c0.3-0.2,0.6-0.4,0.8-0.7c4.1-2.8,26.2-8.6,37.8-5.2
			c11.4,3.2,21.5,11.4,26.8,16.2c-2.3,2.2-4.5,4.5-6.7,6.9c-4.1-3.2-11.4-7.5-23.7-11c-13.6-3.9-28.3,0.3-37.8,4.3
			C248.9,220.2,249.7,216.7,250.8,213.3L250.8,213.3z M246.6,255.8c-0.2-4.1-0.4-8.9-0.2-14.1c5.7-3.4,22.6-11,35.4-7.4
			c9.9,2.8,15.3,6,17.9,8c-4.1,5.3-7.8,10.6-10.8,15.8h-42.1C246.7,257.3,246.7,256.6,246.6,255.8L246.6,255.8z M424.2,258.1h-14
			c-1.8-14.1-10.1-35.5-32.6-35.5c-12.7,0-26.6,6.5-41.1,19.2c-3.2,2.8-3.5,7.7-0.7,10.9c2.8,3.2,7.7,3.5,10.9,0.7
			c11.4-10,22.1-15.4,30.9-15.4c11.9,0,15.7,12.9,17,20h-87.3c13.9-20,35.1-40.3,54.1-45.6c16.2-4.5,29.7-3.2,40.1,4
			C416.3,226.9,422.1,247.1,424.2,258.1L424.2,258.1z M279.9,154.6c57.8-9.8,78.9,26.8,85,41.2c-2.5,0.5-5.1,1.1-7.7,1.8
			c-2.1,0.6-4.3,1.4-6.4,2.2c-3.3-4.8-9.6-12.8-18.9-19.7c-13.3-9.8-30.4-22.4-59-10.2c-40.6,17.4-38.5,64.8-40.2,88.1h-13.2
			C219.3,235.4,224.1,164.1,279.9,154.6L279.9,154.6z M141.3,179.1c48.4-26.2,75.8-3.4,80.3,0.9c-1.7,3.1-3.3,6.3-4.7,9.5
			c-9.4-6.4-36.5-19.8-76.6,3.9c-0.4,0.2-0.8,0.5-1.3,0.7c-27,16.4-44,37.9-50.6,64H73.3C74.9,250.8,86.2,208.9,141.3,179.1
			L141.3,179.1z M141.3,179.1"/>
	</g>
</g>
</svg>
