<?xml version="1.0" encoding="utf-8"?>
<!-- Generator: Adobe Illustrator 18.0.0, SVG Export Plug-In . SVG Version: 6.00 Build 0)  -->
<!DOCTYPE svg PUBLIC "-//W3C//DTD SVG 1.1//EN" "http://www.w3.org/Graphics/SVG/1.1/DTD/svg11.dtd">
<svg  fill="#9682A3" version="1.1" id="Layer_1" xmlns="http://www.w3.org/2000/svg" xmlns:xlink="http://www.w3.org/1999/xlink" x="0px" y="0px"
	 viewBox="0 0 500 500" enable-background="new 0 0 500 500" xml:space="preserve">
<g>
	<g>
		<defs>
			<rect id="SVGID_1_" x="139.6" y="88.5" width="220.8" height="323"/>
		</defs>
		<clipPath id="SVGID_2_">
			<use xlink:href="#SVGID_1_"  overflow="visible"/>
		</clipPath>
		<path clip-path="url(#SVGID_2_)" d="M360.6,228.6c0-37-18.3-69.8-46.2-89.8V88.5H185.8v50.2c-28,20.1-46.2,52.9-46.2,89.8
			c0,58.2,45.3,106.1,102.5,110.2v16.4c0,4.4,3.6,8,8,8c8.7,0,15.8,7.1,15.8,15.8c0,8.7-7.1,15.8-15.8,15.8
			c-8.7,0-15.8-7.1-15.8-15.8c0-4.4-3.6-8-8-8s-8,3.6-8,8c0,17.5,14.3,31.8,31.8,31.8c17.6,0,31.8-14.3,31.8-31.8
			c0-14.8-10.1-27.3-23.8-30.8v-9.4C315.3,334.6,360.6,286.8,360.6,228.6L360.6,228.6z M201.8,104.5h96.5v24.7
			c-14.6-7.1-31-11.1-48.2-11.1c-17.3,0-33.7,4-48.2,11.1V104.5z M257,318.8l-0.9,0.1v-21h-12v21l-0.9-0.1
			c-20.1-1.5-38.4-9.6-52.7-22.2l14.8-14.8l-8.5-8.5L182,288.1c-12.7-14.5-20.9-33.1-22.2-53.6h21v-12h-21
			c1.3-20.4,9.5-39,22.2-53.6l14.8,14.8l8.5-8.5l-14.8-14.8c14.5-12.7,33.1-20.9,53.6-22.2v21h12v-21c20.4,1.3,39,9.5,53.6,22.2
			l-14.8,14.8l8.5,8.5l14.8-14.8c12.7,14.5,20.9,33.1,22.2,53.6h-21v12h21c-1.3,20.4-9.5,39-22.2,53.6l-14.8-14.8l-8.5,8.5
			l14.8,14.8C295.3,309.1,277.1,317.3,257,318.8L257,318.8z M257,318.8"/>
	</g>
	<path d="M255.1,213.8c-1.6-0.5-3.3-0.9-5-0.9c-8.6,0-15.6,7-15.6,15.6c0,8.6,7,15.6,15.6,15.6c8.6,0,15.6-7,15.6-15.6
		c0-2.4-0.5-4.6-1.5-6.6l19.6-28.1L255.1,213.8z M255.1,213.8"/>
</g>
</svg>
