<?xml version="1.0" encoding="utf-8"?>
<!-- Generator: Adobe Illustrator 18.0.0, SVG Export Plug-In . SVG Version: 6.00 Build 0)  -->
<!DOCTYPE svg PUBLIC "-//W3C//DTD SVG 1.1//EN" "http://www.w3.org/Graphics/SVG/1.1/DTD/svg11.dtd">
<svg version="1.1" id="Layer_1" xmlns="http://www.w3.org/2000/svg" xmlns:xlink="http://www.w3.org/1999/xlink" x="0px" y="0px"
	 viewBox="0 0 500 500" enable-background="new 0 0 500 500" xml:space="preserve">
<path stroke="#000000" stroke-width="3" stroke-miterlimit="10" d="M489.4,359.5c-36.2-76.7-58.2-154.1-66-183.8
	c-1.4-5.4-3.8-10.4-7-15l0-17.9c0-8.9-4.3-17.3-11.6-22.5c-4-2.9-8-5.9-11.9-8.9c-54.3-79.1-87.3-99.2-88.7-100.1
	c-0.4-0.2-0.8-0.4-1.3-0.5c-1.1-0.2-7.1-0.9-15.4,8.3c-16.7,16.8-50.2,88.3-53,106c-2,12.7-21.7,41.9-29.6,53
	c-0.2,0.1-0.4,0.1-0.7,0.2c-19.4,5.5-44,18.2-49.4,36.2c-2.7,9.2-0.4,18.4,7,27.4c0.2,12.8,2.4,39.9,9.8,69
	c-1.1,1.6-2.2,3.2-3.1,4.7c-3.7,5.5-8.8,9.9-14.8,12.9c-6.4,3.2-12,6.9-16.5,11c-3.4,3.1-8.8,8.9-14.9,15.5c-2.4,2.6-5,5.4-7.7,8.2
	c-4.7,0-17.6,0.1-31.4,2.2c-23.8,3.6-37.7,11.1-41.1,22.4c-3.3,10.6-3.1,18.8,0.4,24.3c0.2,0.3,0.3,0.5,0.5,0.7
	c-12.7,4.3-26.4,8.1-38,10.8c-3.2,0.7-5.4,3.7-5.1,6.9c0.3,3.3,2.8,5.8,6.1,6.1c15,1.1,38.5,1.8,39.1,1.8c10.6,0,21.1-2.7,30.4-7.8
	c0.3-0.2,0.6-0.3,0.9-0.5c9,3.2,18.5,4.9,28.1,4.9c0.1,0,193.8-0.8,193.8-0.8c3.9,0,7.4-2.2,9.1-5.8c0-0.1,0-0.1,0.1-0.2
	c75.1,9.3,120.5,10.6,146,10.6c6.4,0,11.5-0.1,15.6-0.2c0.5,0,0.9,0,1.3,0c4.3-0.1,8.5-1.2,12-3.6c7.3-4.8,12.4-11.3,15.2-19.6
	C505.8,391.2,490.6,361.8,489.4,359.5L489.4,359.5z M459.9,311.9c-11.9-1.2-25.4,4.2-32.9,7.9c-1.5-21.5-11.1-66.4-11.6-68.5
	c-0.3-1.2-1-2.2-2.1-2.7l-19.3-9.9c-3.1-1.6-5.2-4.7-5.5-8.3c-0.2-2.7,0.8-5.3,2.5-7.3l5.5-6.7c6-7.3,7.8-17.1,4.8-26l-1.8-5.4
	c-1.2-3.7-1.5-7.6-0.9-11.4l2.9-17.5l4.5,4.8c4.6,4.8,7.8,10.7,9.5,17C421.7,201,436.4,253.4,459.9,311.9L459.9,311.9z M165.2,392.6
	c-4.4-2.2-10.5-4.2-18.4-6.2c7.8-5.7,15.3-11.5,21.9-17.3l24.1-4.9c2.7,4.5,5.6,8.6,8.6,12.2c6.9,8.3,19.3,22.1,24.5,27.9
	C212.1,403.2,179.8,399.9,165.2,392.6L165.2,392.6z M187.4,354.3c0.4,0.8,0.9,1.7,1.3,2.5l-6.1,1.2
	C184.5,356.8,186.1,355.6,187.4,354.3L187.4,354.3z M206,369.1c-4.7-6.1-9.1-13.4-13-21.8c1-1.8,1.5-3.3,1.8-4.4
	c6-5.4,36.4-32.7,58.7-56.6c-1.1,2.2-1.9,4-2.5,5.5c-1.8,4.4-1.4,9.1,0.9,13.6c2.3,4.5,6.7,8.8,12.5,12.8
	C257.6,328.2,235.3,358.2,206,369.1L206,369.1z M259.1,301.7c-1.3-2.5-1.5-4.8-0.6-7c1-2.5,3-6.6,5.6-11.8
	c3.6-7.3,8.2-16.4,12.4-26.3c0.1-0.2,0.5-1.1,0.6-1.4c1.5-3.5,3-6.8,4.4-10c3.9-8.6,7.4-16.4,9.1-24.3c3.6,4.6,8.3,9.2,14.6,12.7
	c8.8,4.8,18.7,6.4,29.7,4.8c-3.2,7.5-6.5,19.1-6.5,34.6c0,28.5,16,55.3,16.7,56.4c0.7,1.2,2.1,1.9,3.4,1.9c0.2,0,0.4,0,0.6-0.1
	c1.6-0.3,2.9-1.5,3.3-3.1c0.4-1.6,9-40.1,7.9-57.7c-0.8-12.7-7-28-10.6-36.1c15.2-5.8,25.6-15.1,31.1-27.8c7.8-18.1,3-37.9-0.6-45.8
	c-4.8-10.5-32.1-40.8-65.4-47.1c-4.7-0.9-9.5,0.6-12.9,3.9c-2.7,2.6-5.4,5.4-8.3,8.3c-4.7,4.7-9.7,9.7-14.9,14.6l-0.1-4.2
	c-0.1-3.6,0.5-7.1,1.7-10.5c11.5-32.6,22.6-57.2,29.2-65.2c29,25.7,51.2,52.3,55.2,57.2l1.5,8.2c0.8,4.8,3.1,9.1,6.7,12.4l20.3,19.3
	l-2.4,14.5c-0.9,5.1-0.4,10.3,1.2,15.2l1.8,5.4c2.1,6.3,0.8,13.2-3.4,18.4l-5.7,6.9c-3.8,4.6-5.1,10.6-3.5,16.4
	c1.4,5,5,9.1,9.7,11.5l17.1,8.8c2.1,10,11.9,57.6,11.2,71.4c-0.7,12.6,1.3,31.6,8.6,48.9l-93.9-21.7c-2.8-6.3-12.7-24.4-36-30
	C279,318.8,263.4,310.1,259.1,301.7L259.1,301.7z M242.2,193.8c-23.6,2.6-31.4-1.8-34-4.7c-1-1.1-1.4-2.2-1.5-3.1
	c3.2-0.9,6.1-1.7,8.9-2.5c19.8-5.4,29.7-8.2,46.7-19.5c13.7-9.1,26-21.5,36.9-32.5c2.9-2.9,5.6-5.6,8.2-8.2c1.5-1.5,3.7-2.1,5.8-1.7
	c30.8,5.8,55.8,34.3,59.6,42.6c2.5,5.5,7.4,23.2,0.5,39.3c-4.8,11.2-14.4,19.3-28.6,24.2c-13.7,4.7-25.6,4.4-35.5-1
	c-10.3-5.6-15.8-15.1-18.3-20.6c-0.3-0.7-1.8-4.3-2.4-5.5c-0.1-0.2-0.2-0.3-0.2-0.5c-2.5-4.9-6-9.1-10.5-12.2
	c-6.2-4.2-12.6-5.6-19-4.3C253.2,184.8,247.6,188.2,242.2,193.8L242.2,193.8z M343.2,239.6c3.3,7.7,8.4,20.9,9.1,31.4
	c0.7,10.9-2.9,31.5-5.4,44.3c-4.5-9.9-10.4-26-10.4-42.3C336.5,257.3,340.2,246.1,343.2,239.6L343.2,239.6z M242.6,126.4
	c2.6-16.3,35.1-86,50.8-101.6c0.1-0.1,0.1-0.1,0.2-0.2c3.8-4.3,6.4-5.4,7.6-5.7c5.9,4,37.4,27.4,85.5,97.6c0.2,0.3,0.5,0.6,0.8,0.9
	c4.1,3.2,8.4,6.4,12.7,9.5c5.1,3.7,8.2,9.6,8.2,15.9l0,8.6l-1.7-1.7c-2.2-2.3-5.6-3-8.7-1.6c-0.7,0.3-1.4,0.8-1.9,1.3l-17.8-16.9
	c-2.3-2.1-3.7-4.9-4.3-8l-1.6-9.2c-0.1-0.7-0.4-1.3-0.8-1.8c-0.3-0.3-25.7-32-59.6-61.4c-1.4-1.2-3.5-1.3-5-0.2
	c-4.6,3.3-15.1,16.9-34.3,71.3c-1.5,4.3-2.3,8.8-2.2,13.3l0.2,11.2c-4.2,3.5-8.4,6.9-12.8,9.8c-14.7,9.8-23.5,12.6-40.1,17.3
	C226,162.5,240.6,139.4,242.6,126.4L242.6,126.4z M170.1,240.4c0-1-0.4-1.9-1-2.6c-6.2-7.2-8.4-14.2-6.4-20.9
	c3.6-12.1,19.8-22.3,36.3-28.3c0.5,1.9,1.4,3.9,3,5.7c4.7,5.6,13.9,8.4,27.3,8.4c1.9,0,3.9-0.1,6-0.2c-0.9,1.3-1.7,2.6-2.6,3.9
	c-5.6,9.1-10,19.5-12.9,30.9c-1.5,6-5.3,17.3-12.8,25.4c-6.8,7.3-19,24.4-29.1,39.2C172.6,278.3,170.1,254.1,170.1,240.4
	L170.1,240.4z M49.3,407.7c-2-3.4-1.8-9.6,0.6-17.5c4.3-14,37.4-18,57.1-18.8c-2.4,2.5-4.8,4.9-7.2,7.3c-5.7-0.6-9.3-0.9-9.5-0.9
	c-2.2-0.2-4.2,1.5-4.3,3.7c-0.2,2.2,1.5,4.2,3.7,4.3c0,0,0.9,0.1,2.5,0.2c-5.4,4.9-10.5,9.2-15,12.1c-6.2,3.9-15.2,8-25.4,11.7
	C51,409.6,50.1,409,49.3,407.7L49.3,407.7z M43.7,430.4c-6.8-0.2-16.5-0.5-27.4-1.2c23.7-6.1,51-15.3,65.1-24.3
	c14.1-8.9,33.1-29.5,47-44.5c6-6.5,11.3-12.1,14.5-15.1c3.9-3.6,8.8-6.9,14.6-9.7c7.3-3.6,13.5-9,18-15.7
	c10.3-15.4,28.8-42.5,37.5-51.8c8.4-9,12.6-20.7,14.8-28.9c2.7-10.6,6.7-20.3,11.9-28.7c6.9-11.1,14.1-17.8,20.9-19.2
	c4.2-0.9,8.4,0.1,12.7,3.1c4.8,3.3,8.3,8.4,9.8,14.4c0.1,0.5,0.2,0.8,0.2,1c0.8,10.1-3.8,20.3-9.1,32.1c-1.5,3.3-5.2,11.7-5.2,11.9
	c-8.2,17.5-60.5,66.2-80.5,83.9c-0.7,0.7-1.2,1.5-1.3,2.5c0,0.3-1.3,8-13.8,13.9c-0.4,0.2-0.8,0.5-1.1,0.8
	c-10,10-23.3,20.3-37.2,30.1c-0.2,0.1-0.3,0.2-0.5,0.3c-22.4,15.6-46.7,29.6-62.8,38.4C63.2,428.4,53.5,430.7,43.7,430.4L43.7,430.4
	z M104.8,427h-0.3c-6.2,0-12.3-0.8-18.3-2.3c15-8.5,33.8-19.8,51.7-32.1c10.6,2.2,18.5,4.6,23.5,7c-4.5,5.6-11.4,15.9-11.9,27.2
	L104.8,427z M300,425.1c-0.2,0.3-0.6,1.1-1.8,1.1l-140.8,0.6c0.7-10.1,8.3-20,11.7-23.9c22.7,7.6,61.1,9.8,62.9,9.9
	c0.9,0.1,1.8-0.2,2.5-0.7c6-4.1,16.4-8.7,19.5-6.4c0.6,0.4,1.3,0.7,2,0.8c5.3,0.6,15.5-0.2,23.1-1c3.3-0.3,6.5,1,8.7,3.5l11.9,14
	C300.5,423.9,300.2,424.8,300,425.1L300,425.1z M490,413.1c-1.9,5.7-5.2,10.3-9.9,13.9c-3.2,2.4-7.1,3.7-11.1,3.8c0,0,0,0-0.1,0
	c-20.2,0.3-67.5,1.1-161.5-10.6c-0.4-0.8-0.9-1.6-1.5-2.4l-11.9-14c-3.9-4.5-9.7-6.9-15.6-6.3c-9.4,1-16.6,1.3-20.5,1.1
	c-4.2-2.4-10.1-2-17.7,1.4c-1.8,0.8-3.6,1.7-5,2.5c-0.2-0.3-14.4-16-23.7-26.8c30.9-12.6,53.2-43.2,60-53.3c7,3.6,15.3,6.7,24.5,8.9
	c23.4,5.7,30.9,26.1,31.2,26.9c0.5,1.3,1.5,2.3,2.9,2.6l102.3,23.6c0.3,0.5,0.5,0.9,0.8,1.4l10.7,17.9c1.3,2.1,4.2,2.7,6.2,0.9
	c1.5-1.3,1.7-3.5,0.7-5.2L440,381.6c-10.2-17-13.3-38.6-12.9-52.8c8-4.4,25.4-11.9,36.5-7.9c5.7,13.9,11.9,28,18.6,42.2
	c0,0.1,0.1,0.1,0.1,0.2C487.4,372.9,495.7,395.8,490,413.1L490,413.1z M490,413.1"/>
</svg>
