<?xml version="1.0" encoding="utf-8"?>
<!-- Generator: Adobe Illustrator 18.0.0, SVG Export Plug-In . SVG Version: 6.00 Build 0)  -->
<!DOCTYPE svg PUBLIC "-//W3C//DTD SVG 1.1//EN" "http://www.w3.org/Graphics/SVG/1.1/DTD/svg11.dtd">
<svg  fill="#9682A3" version="1.1" id="Layer_1" xmlns="http://www.w3.org/2000/svg" xmlns:xlink="http://www.w3.org/1999/xlink" x="0px" y="0px"
	 viewBox="0 0 500 500" enable-background="new 0 0 500 500" xml:space="preserve">
<g>
	<g>
		<defs>
			<rect id="SVGID_1_" y="44.5" width="500" height="410.9"/>
		</defs>
		<clipPath id="SVGID_2_">
			<use xlink:href="#SVGID_1_"  overflow="visible"/>
		</clipPath>
		<path clip-path="url(#SVGID_2_)" d="M9.6,172.6h68.5c5.3,0,9.6-4.3,9.6-9.6V94.6c0-5.3-4.3-9.6-9.6-9.6H19.1v-7l17.2-17.2
			c3.7-3.7,3.7-9.8,0-13.5c-3.7-3.7-9.8-3.7-13.5,0l-20,20C1,69.1,0,71.5,0,74.1v89C0,168.4,4.3,172.6,9.6,172.6L9.6,172.6z
			 M68.5,104.1v49.4H19.1v-49.4H68.5z M68.5,104.1"/>
		<path clip-path="url(#SVGID_2_)" d="M119.4,172.6h68.5c5.3,0,9.6-4.3,9.6-9.6V94.6c0-5.3-4.3-9.6-9.6-9.6h-59v-7l17.2-17.2
			c3.7-3.7,3.7-9.8,0-13.5c-3.7-3.7-9.8-3.7-13.5,0l-20,20c-1.8,1.8-2.8,4.2-2.8,6.8v89C109.8,168.4,114.1,172.6,119.4,172.6
			L119.4,172.6z M178.3,104.1v49.4h-49.4v-49.4H178.3z M178.3,104.1"/>
	</g>
	<path d="M489.6,326.6h-68.5c-5.3,0-9.6,4.3-9.6,9.6v68.5c0,5.3,4.3,9.6,9.6,9.6h59v7l-17.2,17.2c-3.7,3.7-3.7,9.8,0,13.5
		c1.9,1.9,4.3,2.8,6.8,2.8c2.4,0,4.9-0.9,6.8-2.8l20-20c1.8-1.8,2.8-4.2,2.8-6.8v-89C499.2,330.8,494.9,326.6,489.6,326.6
		L489.6,326.6z M430.7,395.1v-49.4h49.4v49.4H430.7z M430.7,395.1"/>
	<path d="M379.8,326.6h-68.5c-5.3,0-9.6,4.3-9.6,9.6v68.5c0,5.3,4.3,9.6,9.6,9.6h59v7l-17.2,17.2c-3.7,3.7-3.7,9.8,0,13.5
		c1.9,1.9,4.3,2.8,6.8,2.8c2.4,0,4.9-0.9,6.8-2.8l20-20c1.8-1.8,2.8-4.2,2.8-6.8v-89C389.4,330.8,385.1,326.6,379.8,326.6
		L379.8,326.6z M320.9,395.1v-49.4h49.4v49.4H320.9z M320.9,395.1"/>
	<path d="M236.5,172.6h253.1c5.3,0,9.6-4.3,9.6-9.6c0-5.3-4.3-9.6-9.6-9.6H236.5c-5.3,0-9.6,4.3-9.6,9.6
		C227,168.4,231.2,172.6,236.5,172.6L236.5,172.6z M236.5,172.6"/>
	<path d="M489.6,213.9H9.6c-5.3,0-9.6,4.3-9.6,9.6c0,5.3,4.3,9.6,9.6,9.6h480.1c5.3,0,9.6-4.3,9.6-9.6
		C499.2,218.2,494.9,213.9,489.6,213.9L489.6,213.9z M489.6,213.9"/>
	<path d="M489.6,274.3H9.6c-5.3,0-9.6,4.3-9.6,9.6c0,5.3,4.3,9.6,9.6,9.6h480.1c5.3,0,9.6-4.3,9.6-9.6
		C499.2,278.6,494.9,274.3,489.6,274.3L489.6,274.3z M489.6,274.3"/>
	<path d="M262.9,395.1H9.6c-5.3,0-9.6,4.3-9.6,9.6c0,5.3,4.3,9.6,9.6,9.6h253.3c5.3,0,9.6-4.3,9.6-9.6
		C272.4,399.3,268.2,395.1,262.9,395.1L262.9,395.1z M262.9,395.1"/>
	<path d="M262.9,334.7H9.6c-5.3,0-9.6,4.3-9.6,9.6c0,5.3,4.3,9.6,9.6,9.6h253.3c5.3,0,9.6-4.3,9.6-9.6
		C272.4,339,268.2,334.7,262.9,334.7L262.9,334.7z M262.9,334.7"/>
</g>
</svg>
