<?xml version="1.0" encoding="utf-8"?>
<!-- Generator: Adobe Illustrator 18.0.0, SVG Export Plug-In . SVG Version: 6.00 Build 0)  -->
<!DOCTYPE svg PUBLIC "-//W3C//DTD SVG 1.1//EN" "http://www.w3.org/Graphics/SVG/1.1/DTD/svg11.dtd">
<svg  fill="#9682A3" version="1.1" id="Layer_1" xmlns="http://www.w3.org/2000/svg" xmlns:xlink="http://www.w3.org/1999/xlink" x="0px" y="0px"
	 viewBox="0 0 500 500" enable-background="new 0 0 500 500" xml:space="preserve">
<g>
	<path d="M289.2,190.7H95.3c-4.5,0-8.1-3.6-8.1-8.1c0-4.5,3.6-8.2,8.1-8.2h193.9c4.4,0,8.1,3.6,8.1,8.2
		C297.3,187,293.6,190.7,289.2,190.7L289.2,190.7z M203.5,255.7c0-4.5-3.7-8.1-8.1-8.1H95.3c-4.5,0-8.1,3.7-8.1,8.1
		c0,4.4,3.6,8.1,8.1,8.1h100.1C199.9,263.8,203.5,260.2,203.5,255.7L203.5,255.7z M95.3,320.8c-4.5,0-8.1,3.7-8.1,8.1
		c0,4.5,3.6,8.1,8.1,8.1h51.3c4.5,0,8.1-3.7,8.1-8.1c0-4.4-3.6-8.1-8.1-8.1H95.3z M489.7,388.6c0,4.5-3.7,8.1-8.2,8.1H415
		c-2.8,0-5.6-1.5-7-4l-7.9-13.3L379.7,411c-1.5,2.4-4.1,3.7-6.8,3.7c-0.3,0-0.6,0-0.9-0.1c-3.1-0.3-5.7-2.4-6.8-5.2l-20-54.1
		l-13.4,36.1c-1.2,3.3-4.2,5.3-7.6,5.3h-39c-4.4,0-8.1-3.6-8.1-8.1c0-4.5,3.7-8.2,8.1-8.2h33.3l19.2-51.3c1.2-3.2,4.2-5.2,7.6-5.2
		s6.4,2.1,7.6,5.3l22,59.4l18.7-28.9c1.5-2.3,3.9-3.9,6.9-3.7c2.9,0,5.4,1.5,6.9,3.9l12.2,20.5h37.6c3.3-6,5.9-11.8,7.1-17.1
		c2.3-7.2,3.4-13.9,3.4-20.6c0-23.5-12.9-45.2-33.5-56.6c-9.4-5.2-20.3-8-31.1-8c-19.3,0-37.4,8.5-49.7,23.4
		c-1.6,1.9-3.9,2.9-6.3,2.9c-2.4,0-4.8-1-6.3-2.9c-19.3-23.4-54.2-30-80.8-15.3c-20.6,11.3-33.4,33-33.4,56.6
		c0,6.8,1.1,13.4,3.2,19.8c10.5,46.8,96.8,106.1,117.3,119.6c13.4-8.9,55.2-37.4,85.4-69.3c3.1-3.3,8.3-3.3,11.4-0.3
		c3.3,3.1,3.4,8.3,0.4,11.5c-37.6,39.7-90.6,73.2-92.9,74.6c-1.3,0.9-2.9,1.3-4.4,1.3c-1.5,0-3-0.4-4.3-1.3
		c-4.8-2.9-115.5-73.2-128.6-131.8c-2.5-7.3-3.7-15.7-3.7-24.1c0-29.4,16-56.5,41.7-70.8c26.8-14.7,60.8-12.2,85.4,4.7V90.6h-60.5
		v17.5c0,4.5-3.7,8.2-8.2,8.2H115.4c-4.5,0-8.2-3.7-8.2-8.2V90.6H46.7v364.3h202.9c4.5,0,8.2,3.6,8.2,8.1c0,4.5-3.7,8.2-8.2,8.2
		h-211c-4.4,0-8.1-3.6-8.1-8.2V82.5c0-4.5,3.7-8.2,8.1-8.2h68.7V52c0-4.5,3.7-8.1,8.1-8.1h33.4v-0.4c0-24,19.5-43.5,43.5-43.5
		s43.5,19.5,43.5,43.5v0.4h33.4c4.5,0,8.1,3.6,8.1,8.1v22.3h68.7c4.5,0,8.1,3.6,8.1,8.2V279c24.8-18.8,60.4-22.3,88.3-7.1
		c25.8,14.3,41.8,41.4,41.8,70.8c0,8.5-1.4,16.8-4,25c-0.9,3.9-2.4,8.3-4.4,12.8h6C486,380.4,489.7,384.1,489.7,388.6L489.7,388.6z
		 M260.9,60.2h-34.5c-2.5,0-4.9-1.2-6.4-3.2c-1.5-1.9-2.1-4.5-1.5-7c0.6-2.5,1-4.6,1-6.5c0-15-12.2-27.3-27.3-27.3
		c-15,0-27.3,12.2-27.3,27.3c0,2,0.3,4,1,6.5c0.6,2.5,0.1,5-1.4,7c-1.6,2-4,3.2-6.4,3.2h-34.6V100h137.4V60.2z M260.9,60.2"/>
</g>
</svg>
